<?xml version="1.0" encoding="utf-8"?>
<!-- Generator: Adobe Illustrator 28.0.0, SVG Export Plug-In . SVG Version: 6.00 Build 0)  -->
<svg version="1.1" id="Calque_1" xmlns="http://www.w3.org/2000/svg" xmlns:xlink="http://www.w3.org/1999/xlink" x="0px" y="0px"
	 viewBox="0 0 1063.8 693" style="enable-background:new 0 0 1063.8 693;" xml:space="preserve">
<style type="text/css">
	.st0{fill:#FFFFFF;}
	.st1{fill:#FFFFFF;stroke:#FFFFFF;stroke-width:0.75;stroke-miterlimit:10;}
</style>
<g>
	<g>
		<path class="st0" d="M299.2,149.8c51.9-46.9,104.1-93.5,155.4-141.1c11-10.2,18.9-11.4,32-3.9c164.9,94.3,329.7,188.8,495.6,281.3
			c28.9,16.1,22.5,40.5,28.5,63.2c-9.4,2.5-13.2-4.3-18.5-7.3c-167.5-95.6-335-191.3-502.3-287.4c-11.7-6.7-18.4-4.1-27.5,4.2
			c-65.8,60.9-132,121.2-198.3,181.6c-5,4.6-9.5,12.5-17.7,9c-7.4-3.1-4.8-11.5-5.7-17.5c-3.3-24.1-6.3-48.3-8.5-72.5
			c-0.8-9.2-3.4-11.6-13.1-10.8c-37,3.1-37.3,2.7-33.6,39.8c3.6,35.4,7.3,70.9,12.1,106.2c1.5,11.1-2.2,17.4-10,24.3
			c-24.9,22-49.1,44.9-73.5,67.4c-6.1,5.3-12.1,10.6-18.2,16c-27.1,24.4-54.3,48.5-81,73.3c-7.5,6.9-9.6-0.2-10.5-3.8
			c-3-12.9,2.4-26.7-4.1-39.7c-1.8-3.7,4.2-4.9,6.6-7.1c42.4-38.9,84.1-78.5,127.7-116c18.4-15.8,17.6-33.8,15-53.8
			c-3.3-25.6-5.8-51.3-10.4-76.7c-3-16.8-1.3-33.8-4.7-50.4c-1.5-7.2-0.1-11.9,7.5-12.9c40-5.1,80-10,120-14.7c1.9-0.2,4,1.9,6.1,3
			c0.2,4.9-0.6,10,2.6,14.4c0.5,5.9,1.1,11.8,1.7,17.6c1,10.7,2.1,21.4,3.5,36.2C285.5,162.7,292.3,156.2,299.2,149.8L299.2,149.8z"
			/>
		<path class="st0" d="M575.9,276.3c7.8,17.3-4.3,19.6-19.3,19.8c-12.8,0.1-28,9.1-37.6,1.2c-8.7-7.2-3.2-23.7-6.4-35.5
			c-4.7-17-0.5-23.2,18.2-25.2C572,232.1,571.8,230.8,575.9,276.3L575.9,276.3z"/>
		<path class="st0" d="M590,370c-12.3,20.7-33.4,10.7-49,15.5c-18.1,5.5-16-9.1-15.8-18.5c0.3-13.5-10.9-30.6-2-38.9
			c10.8-10.2,31-10.2,45.7-7.6C597.9,325.5,576.3,354,590,370L590,370z"/>
		<path class="st0" d="M468,244.8c16.4-7.4,20.8,3.1,20.7,18.9c-0.1,13,9.3,28.1,1.9,38c-7.5,10.1-24.7,2.9-37,6.8
			c-16.5,5.2-24.2-0.4-23.9-17.7c0.1-3.5-1.1-7-1.5-10.5c-2.4-20.6,7.2-32,28.6-34.2C459.7,245.7,462.6,245.4,468,244.8L468,244.8z"
			/>
		<path class="st0" d="M452.2,395.8c-7.3,2-10.9-2.3-11.3-11.3c-0.3-6.5-1.6-12.9-2.4-19.4c-2.3-19.5,6.4-30.5,26.1-32.9
			c20.8-2.6,32.2,6.2,34.3,26.4c2.2,20.9-7.4,32.7-28.7,35.3C464.9,394.5,459.6,395,452.2,395.8L452.2,395.8z"/>
	</g>
	<g>
		<path class="st1" d="M69.3,520.2l45.4-6.1c11.8-1.6,22.1-1.8,30.9-0.8s17,4.1,24.7,9.2c20,12.9,32.1,35.1,36.3,66.4
			c1.4,10.3,1.8,19.9,1.1,28.7s-2.4,16.8-5.2,24.2s-6.8,14.1-12,20.3c-4.1,4.8-8.7,8.8-13.8,12s-10.8,5.8-17,7.7s-13.2,3.3-21.1,4.4
			l-45.6,6c-6.3,0.8-11.2,0.5-14.7-1s-5.9-3.9-7.4-7.3c-1.5-3.3-2.5-7.8-3.3-13.4L50.8,544.4c-1-7.5-0.1-13.2,2.9-17
			C56.5,523.6,61.8,521.2,69.3,520.2L69.3,520.2z M86.5,546l15.6,116.8l26.4-3.5c5.8-0.8,10.3-1.5,13.6-2.3c3.3-0.8,6.6-2,9.9-3.7
			c3.4-1.7,6.2-3.9,8.4-6.5c10.3-11.4,13.9-29.2,10.7-53.3c-2.3-17-6.5-29.4-12.8-37.1c-6.3-7.8-13.3-12.3-21.1-13.6
			s-17.1-1.2-27.7,0.2L86.5,546L86.5,546z"/>
		<path class="st1" d="M301,486.1c17.9-2.4,33.7-0.8,47.4,4.7s24.8,14.5,33.2,27c8.4,12.5,13.8,27.7,16.2,45.7
			c1.8,13.3,1.6,25.7-0.5,37S391,622,384.9,631s-14.2,16.2-24.1,21.9c-9.9,5.6-21.7,9.3-35.2,11.2c-13.5,1.8-25.8,1.2-37-1.7
			c-11.2-2.9-20.9-7.8-29.1-14.8s-14.8-15.7-20-26.4s-8.6-22.4-10.3-35.3c-1.8-13.2-1.5-25.6,0.8-37.2c2.3-11.5,6.6-21.7,12.7-30.4
			c6.2-8.7,14.1-15.8,23.9-21.3S287.9,487.9,301,486.1L301,486.1z M362.4,568c-1.7-12.6-5.2-23.2-10.5-32
			c-5.3-8.7-12.1-14.9-20.2-18.6c-8.2-3.7-17.2-4.9-27-3.6c-7,0.9-13.2,3.1-18.8,6.5s-10.1,7.9-13.7,13.5
			c-3.6,5.6-6.1,12.4-7.5,20.5s-1.5,17-0.2,26.7c1.3,9.8,3.7,18.5,7.2,26c3.5,7.6,7.9,13.7,13.1,18.3c5.2,4.6,10.9,7.8,17.1,9.6
			s12.8,2.2,19.7,1.3c8.9-1.2,16.8-4.5,23.7-10c6.9-5.5,11.9-13.2,15.1-23C363.6,593.4,364.3,581.7,362.4,568L362.4,568z"/>
		<path class="st1" d="M429.9,574.7l-11.1-82.8c-0.9-7-0.1-12.5,2.6-16.5s6.6-6.3,11.8-7c5.4-0.7,9.9,0.5,13.6,3.6
			c3.6,3.1,5.9,8.2,6.9,15.2l11.3,84.7c1.3,9.6,3.4,17.5,6.5,23.7s7.5,10.6,13.5,13.5s13.9,3.6,23.7,2.3
			c13.6-1.8,22.8-6.7,27.4-14.7c4.7-8,6-19.3,4-34.1l-11.4-85.4c-1-7.1-0.1-12.6,2.6-16.5s6.6-6.2,11.9-6.9
			c5.2-0.7,9.7,0.5,13.4,3.5c3.7,3,6.1,8.1,7,15.3l11.1,82.8c1.8,13.5,2,24.9,0.6,34.2s-5.3,17.9-11.7,25.7
			c-5.5,6.6-12.2,11.8-20.1,15.6c-7.9,3.8-17.5,6.4-28.6,7.9c-13.2,1.8-24.8,1.9-34.7,0.3s-18.3-5-25.1-10.1s-12.3-12.3-16.4-21.2
			S431.7,587.7,429.9,574.7L429.9,574.7z"/>
		<path class="st1" d="M745.8,552.2c1.4,10.4,0,20.1-4.3,29.1s-11.2,16.6-20.9,22.6s-21.6,10.1-35.8,12c-17,2.3-31.4,0.9-43.3-4
			c-8.5-3.6-15.6-8.9-21.6-15.9c-5.9-7-9.4-14.2-10.3-21.5c-0.6-4.2,0.4-8,3-11.5c2.5-3.4,6.1-5.4,10.6-6c3.7-0.5,7,0.3,9.8,2.3
			s5.5,5.2,7.9,9.6c2.9,5.2,5.9,9.5,8.9,12.8s7,5.9,12,7.7c4.9,1.8,11.2,2.2,18.7,1.1c10.3-1.4,18.4-4.9,24.2-10.6
			c5.8-5.7,8.2-12.1,7.3-19.3c-0.8-5.7-3.1-10.1-7.1-13.2c-4-3.1-8.8-5.2-14.6-6.3s-13.4-2.2-22.9-3c-12.8-1.2-23.6-3.2-32.4-6
			s-16.2-7.2-22-13.2s-9.3-14-10.7-24c-1.3-9.5,0.2-18.2,4.4-26.3c4.2-8,10.9-14.7,20.2-20s20.5-8.8,33.7-10.5
			c10.6-1.4,19.9-1.3,28,0.3c8.1,1.6,14.9,4.2,20.6,7.9s10,7.7,13,12.2s4.8,9,5.4,13.5c0.6,4.2-0.4,8.1-2.9,11.8s-5.9,5.9-10.3,6.5
			c-4,0.5-7.2-0.1-9.5-1.8s-5-4.7-8.1-8.9c-4-6.1-8.4-10.6-13.3-13.7c-4.9-3-12.2-3.9-21.9-2.6c-9,1.2-16,4.1-21,8.8
			s-7.1,9.8-6.4,15.4c0.5,3.4,1.8,6.3,4,8.5s5.1,4.1,8.6,5.4c3.5,1.4,7,2.3,10.5,2.9c3.5,0.6,9.3,1.3,17.3,2.2c10,1,19.1,2.3,27.4,4
			s15.4,4.1,21.4,7.3s11,7.5,14.9,13.1C742.1,536.4,744.6,543.5,745.8,552.2L745.8,552.2z"/>
		<path class="st1" d="M876.3,439.5L797.7,450l5.7,42.3l72.3-9.7c5.3-0.7,9.5,0,12.4,2s4.7,5,5.2,8.9s-0.3,7.3-2.6,10.1
			s-6.1,4.6-11.5,5.3l-72.3,9.7l6.6,49l81.3-10.9c5.5-0.7,9.8,0,12.9,2.2s5,5.4,5.5,9.6c0.5,4.1-0.4,7.6-2.8,10.5
			c-2.4,2.9-6.4,4.7-11.9,5.5l-94.8,12.7c-7.6,1-13.3,0.1-17.1-2.9c-3.8-2.9-6.2-8.1-7.2-15.7l-17.3-129.4c-0.7-5-0.5-9.2,0.6-12.6
			s3.1-6,6.1-7.9s6.9-3.1,11.9-3.8l92.1-12.3c5.6-0.7,9.8-0.1,12.9,2c3,2.1,4.8,5.1,5.3,9.1c0.5,4.1-0.4,7.5-2.7,10.4
			C885.8,437,881.9,438.7,876.3,439.5L876.3,439.5z"/>
		<path class="st1" d="M956.3,419.9l16.8,125.3l70.7-9.5c5.6-0.8,10.2,0,13.5,2.4c3.4,2.3,5.3,5.6,5.9,9.7c0.6,4.2-0.5,7.8-3.1,10.9
			s-6.8,4.9-12.5,5.7l-84.2,11.3c-7.6,1-13.3,0.1-17.1-2.8c-3.8-2.9-6.2-8.1-7.2-15.7l-17.8-132.6c-0.9-7-0.1-12.5,2.6-16.5
			c2.7-4,6.6-6.3,11.8-7s9.7,0.5,13.4,3.5C953,407.7,955.3,412.8,956.3,419.9L956.3,419.9z"/>
	</g>
</g>
</svg>
