<?xml version="1.0" encoding="utf-8"?>
<!-- Generator: Adobe Illustrator 28.0.0, SVG Export Plug-In . SVG Version: 6.00 Build 0)  -->
<svg version="1.1" id="Calque_1" xmlns="http://www.w3.org/2000/svg" xmlns:xlink="http://www.w3.org/1999/xlink" x="0px" y="0px"
	 viewBox="0 0 1889.9 864.2" style="enable-background:new 0 0 1889.9 864.2;" xml:space="preserve">
<style type="text/css">
	.st0{fill:#FFFFFF;}
	.st1{fill:#FFFFFF;stroke:#FFFFFF;stroke-width:0.75;stroke-miterlimit:10;}
	.st2{fill:none;stroke:#FFFFFF;stroke-width:9;stroke-miterlimit:10;}
</style>
<g>
	<path class="st0" d="M704.5,149.8c51.9-46.9,104.1-93.5,155.4-141.1c11-10.2,18.9-11.4,32-3.9c164.9,94.3,329.7,188.8,495.6,281.3
		c28.9,16.1,22.5,40.5,28.5,63.2c-9.4,2.5-13.2-4.3-18.5-7.3C1230,246.4,1062.5,150.7,895.2,54.6c-11.7-6.7-18.4-4.1-27.5,4.2
		C801.9,119.7,735.7,180,669.4,240.4c-5,4.6-9.5,12.5-17.7,9c-7.4-3.1-4.8-11.5-5.7-17.5c-3.3-24.1-6.3-48.3-8.5-72.5
		c-0.8-9.2-3.4-11.6-13.1-10.8c-37,3.1-37.3,2.7-33.6,39.8c3.6,35.4,7.3,70.9,12.1,106.2c1.5,11.1-2.2,17.4-10,24.3
		c-24.9,22-49.1,44.9-73.5,67.4c-6.1,5.3-12.1,10.6-18.2,16c-27.1,24.4-54.3,48.5-81,73.3c-7.5,6.9-9.6-0.2-10.5-3.8
		c-3-12.9,2.4-26.7-4.1-39.7c-1.8-3.7,4.2-4.9,6.6-7.1c42.4-38.9,84.1-78.5,127.7-116c18.4-15.8,17.6-33.8,15-53.8
		c-3.3-25.6-5.8-51.3-10.4-76.7c-3-16.8-1.3-33.8-4.7-50.4c-1.5-7.2-0.1-11.9,7.5-12.9c40-5.1,80-10,120-14.7c1.9-0.2,4,1.9,6.1,3
		c0.2,4.9-0.6,10,2.6,14.4c0.5,5.9,1.1,11.8,1.7,17.6c1,10.7,2.1,21.4,3.5,36.2C690.8,162.7,697.6,156.2,704.5,149.8L704.5,149.8z"
		/>
	<path class="st0" d="M981.2,276.3c7.8,17.3-4.3,19.6-19.3,19.8c-12.8,0.1-28,9.1-37.6,1.2c-8.7-7.2-3.2-23.7-6.4-35.5
		c-4.7-17-0.5-23.2,18.2-25.2C977.3,232.1,977.1,230.8,981.2,276.3L981.2,276.3z"/>
	<path class="st0" d="M995.3,370c-12.3,20.7-33.4,10.7-49,15.5c-18.1,5.5-16-9.1-15.8-18.5c0.3-13.5-10.9-30.6-2-38.9
		c10.8-10.2,31-10.2,45.7-7.6C1003.2,325.5,981.6,354,995.3,370L995.3,370z"/>
	<path class="st0" d="M873.3,244.8c16.4-7.4,20.8,3.1,20.7,18.9c-0.1,13,9.3,28.1,1.9,38c-7.5,10.1-24.7,2.9-37,6.8
		c-16.5,5.2-24.2-0.4-23.9-17.7c0.1-3.5-1.1-7-1.5-10.5c-2.4-20.6,7.2-32,28.6-34.2C865,245.7,867.9,245.4,873.3,244.8L873.3,244.8z
		"/>
	<path class="st0" d="M857.5,395.8c-7.3,2-10.9-2.3-11.3-11.3c-0.3-6.5-1.6-12.9-2.4-19.4c-2.3-19.5,6.4-30.5,26.1-32.9
		c20.8-2.6,32.2,6.2,34.3,26.4c2.2,20.9-7.4,32.7-28.7,35.3C870.2,394.5,864.9,395,857.5,395.8L857.5,395.8z"/>
</g>
<g>
	<path class="st1" d="M19.3,562l45.4-6.1c11.8-1.6,22.1-1.8,30.9-0.8s17,4.1,24.7,9.2c20,12.9,32.1,35.1,36.3,66.4
		c1.4,10.3,1.8,19.9,1.1,28.7c-0.7,8.8-2.4,16.8-5.2,24.2s-6.8,14.1-12,20.3c-4.1,4.8-8.7,8.8-13.8,12s-10.8,5.8-17,7.7
		c-6.2,1.9-13.2,3.3-21.1,4.4L43,734c-6.3,0.8-11.2,0.5-14.7-1c-3.5-1.5-5.9-3.9-7.4-7.3c-1.5-3.3-2.5-7.8-3.3-13.4L0.8,586.2
		c-1-7.5-0.1-13.2,2.9-17C6.5,565.4,11.8,563,19.3,562L19.3,562z M36.5,587.8l15.6,116.8l26.4-3.5c5.8-0.8,10.3-1.5,13.6-2.3
		s6.6-2,9.9-3.7c3.4-1.7,6.2-3.9,8.4-6.5c10.3-11.4,13.9-29.2,10.7-53.3c-2.3-17-6.5-29.4-12.8-37.1c-6.3-7.8-13.3-12.3-21.1-13.6
		c-7.8-1.3-17.1-1.2-27.7,0.2L36.5,587.8L36.5,587.8z"/>
	<path class="st1" d="M251,527.9c17.9-2.4,33.7-0.8,47.4,4.7s24.8,14.5,33.2,27c8.4,12.5,13.8,27.7,16.2,45.7
		c1.8,13.3,1.6,25.7-0.5,37s-6.3,21.5-12.4,30.5c-6.1,9-14.2,16.2-24.1,21.9c-9.9,5.6-21.7,9.3-35.2,11.2c-13.5,1.8-25.8,1.2-37-1.7
		c-11.2-2.9-20.9-7.8-29.1-14.8c-8.2-7-14.8-15.7-20-26.4s-8.6-22.4-10.3-35.3c-1.8-13.2-1.5-25.6,0.8-37.2
		c2.3-11.5,6.6-21.7,12.7-30.4c6.2-8.7,14.1-15.8,23.9-21.3S237.9,529.7,251,527.9L251,527.9z M312.4,609.8
		c-1.7-12.6-5.2-23.2-10.5-32c-5.3-8.7-12.1-14.9-20.2-18.6c-8.2-3.7-17.2-4.9-27-3.6c-7,0.9-13.2,3.1-18.8,6.5
		c-5.6,3.4-10.1,7.9-13.7,13.5c-3.6,5.6-6.1,12.4-7.5,20.5c-1.4,8.1-1.5,17-0.2,26.7c1.3,9.8,3.7,18.5,7.2,26
		c3.5,7.6,7.9,13.7,13.1,18.3c5.2,4.6,10.9,7.8,17.1,9.6c6.2,1.8,12.8,2.2,19.7,1.3c8.9-1.2,16.8-4.5,23.7-10
		c6.9-5.5,11.9-13.2,15.1-23C313.6,635.2,314.3,623.5,312.4,609.8L312.4,609.8z"/>
	<path class="st1" d="M379.9,616.5l-11.1-82.8c-0.9-7-0.1-12.5,2.6-16.5s6.6-6.3,11.8-7c5.4-0.7,9.9,0.5,13.6,3.6
		c3.6,3.1,5.9,8.2,6.9,15.2l11.3,84.7c1.3,9.6,3.4,17.5,6.5,23.7S429,648,435,650.9s13.9,3.6,23.7,2.3c13.6-1.8,22.8-6.7,27.4-14.7
		c4.7-8,6-19.3,4-34.1L478.7,519c-1-7.1-0.1-12.6,2.6-16.5c2.7-3.9,6.6-6.2,11.9-6.9c5.2-0.7,9.7,0.5,13.4,3.5s6.1,8.1,7,15.3
		l11.1,82.8c1.8,13.5,2,24.9,0.6,34.2s-5.3,17.9-11.7,25.7c-5.5,6.6-12.2,11.8-20.1,15.6c-7.9,3.8-17.5,6.4-28.6,7.9
		c-13.2,1.8-24.8,1.9-34.7,0.3s-18.3-5-25.1-10.1s-12.3-12.3-16.4-21.2S381.7,629.5,379.9,616.5L379.9,616.5z"/>
	<path class="st1" d="M695.8,594c1.4,10.4,0,20.1-4.3,29.1s-11.2,16.6-20.9,22.6s-21.6,10.1-35.8,12c-17,2.3-31.4,0.9-43.3-4
		c-8.5-3.6-15.6-8.9-21.6-15.9c-5.9-7-9.4-14.2-10.3-21.5c-0.6-4.2,0.4-8,3-11.5c2.5-3.4,6.1-5.4,10.6-6c3.7-0.5,7,0.3,9.8,2.3
		s5.5,5.2,7.9,9.6c2.9,5.2,5.9,9.5,8.9,12.8c3,3.3,7,5.9,12,7.7c4.9,1.8,11.2,2.2,18.7,1.1c10.3-1.4,18.4-4.9,24.2-10.6
		c5.8-5.7,8.2-12.1,7.3-19.3c-0.8-5.7-3.1-10.1-7.1-13.2c-4-3.1-8.8-5.2-14.6-6.3c-5.8-1.1-13.4-2.2-22.9-3
		c-12.8-1.2-23.6-3.2-32.4-6s-16.2-7.2-22-13.2c-5.8-6-9.3-14-10.7-24c-1.3-9.5,0.2-18.2,4.4-26.3c4.2-8,10.9-14.7,20.2-20
		c9.3-5.3,20.5-8.8,33.7-10.5c10.6-1.4,19.9-1.3,28,0.3c8.1,1.6,14.9,4.2,20.6,7.9s10,7.7,13,12.2s4.8,9,5.4,13.5
		c0.6,4.2-0.4,8.1-2.9,11.8c-2.5,3.7-5.9,5.9-10.3,6.5c-4,0.5-7.2-0.1-9.5-1.8c-2.3-1.7-5-4.7-8.1-8.9c-4-6.1-8.4-10.6-13.3-13.7
		c-4.9-3-12.2-3.9-21.9-2.6c-9,1.2-16,4.1-21,8.8c-5,4.7-7.1,9.8-6.4,15.4c0.5,3.4,1.8,6.3,4,8.5c2.2,2.2,5.1,4.1,8.6,5.4
		c3.5,1.4,7,2.3,10.5,2.9c3.5,0.6,9.3,1.3,17.3,2.2c10,1,19.1,2.3,27.4,4s15.4,4.1,21.4,7.3c6,3.2,11,7.5,14.9,13.1
		C692.1,578.2,694.6,585.3,695.8,594L695.8,594z"/>
	<path class="st1" d="M826.3,481.3l-78.6,10.5l5.7,42.3l72.3-9.7c5.3-0.7,9.5,0,12.4,2c2.9,2,4.7,5,5.2,8.9s-0.3,7.3-2.6,10.1
		s-6.1,4.6-11.5,5.3l-72.3,9.7l6.6,49l81.3-10.9c5.5-0.7,9.8,0,12.9,2.2s5,5.4,5.5,9.6c0.5,4.1-0.4,7.6-2.8,10.5
		c-2.4,2.9-6.4,4.7-11.9,5.5l-94.8,12.7c-7.6,1-13.3,0.1-17.1-2.9c-3.8-2.9-6.2-8.1-7.2-15.7L712.1,491c-0.7-5-0.5-9.2,0.6-12.6
		s3.1-6,6.1-7.9s6.9-3.1,11.9-3.8l92.1-12.3c5.6-0.7,9.8-0.1,12.9,2c3,2.1,4.8,5.1,5.3,9.1c0.5,4.1-0.4,7.5-2.7,10.4
		C835.8,478.8,831.9,480.5,826.3,481.3L826.3,481.3z"/>
	<path class="st1" d="M906.3,461.7L923.1,587l70.7-9.5c5.6-0.8,10.2,0,13.5,2.4c3.4,2.3,5.3,5.6,5.9,9.7c0.6,4.2-0.5,7.8-3.1,10.9
		s-6.8,4.9-12.5,5.7l-84.2,11.3c-7.6,1-13.3,0.1-17.1-2.8c-3.8-2.9-6.2-8.1-7.2-15.7l-17.8-132.6c-0.9-7-0.1-12.5,2.6-16.5
		c2.7-4,6.6-6.3,11.8-7c5.2-0.7,9.7,0.5,13.4,3.5C903,449.5,905.3,454.6,906.3,461.7L906.3,461.7z"/>
	<path class="st1" d="M1051.5,442.3l16.8,125.3l70.7-9.5c5.6-0.8,10.2,0,13.5,2.4c3.4,2.3,5.3,5.6,5.9,9.7c0.6,4.2-0.5,7.8-3.1,10.9
		c-2.6,3-6.8,4.9-12.5,5.7l-84.2,11.3c-7.6,1-13.3,0.1-17.1-2.9c-3.8-2.9-6.2-8.1-7.2-15.7l-17.8-132.6c-0.9-7-0.1-12.5,2.6-16.5
		c2.7-4,6.6-6.3,11.8-7c5.2-0.7,9.7,0.5,13.4,3.5S1050.6,435.1,1051.5,442.3L1051.5,442.3z"/>
	<path class="st1" d="M1216.7,527.6l-37.1,5c-5.6,0.8-10.1,0-13.4-2.2c-3.3-2.2-5.2-5.4-5.8-9.6c-0.6-4.2,0.4-7.8,2.9-10.9
		c2.5-3,6.7-4.9,12.4-5.7l37.1-5c5.8-0.8,10.3,0,13.5,2.2c3.2,2.2,5.1,5.5,5.7,9.7c0.6,4.1-0.4,7.7-2.9,10.7
		C1226.7,524.9,1222.5,526.8,1216.7,527.6L1216.7,527.6z"/>
	<path class="st1" d="M1262.3,552.1l-18.2-135.6c-0.9-7-0.1-12.5,2.7-16.5c2.7-4,6.7-6.3,11.7-7c5.2-0.7,9.7,0.5,13.4,3.5
		c3.7,3,6.1,8.1,7,15.3l18.2,135.6c0.9,7.1,0,12.7-2.7,16.6c-2.8,4-6.8,6.3-12,7c-5,0.7-9.4-0.6-13.1-3.7
		C1265.5,564.2,1263.2,559.2,1262.3,552.1L1262.3,552.1z"/>
	<path class="st1" d="M1393.2,526.8l-42.3-106l15.9,118.8c0.9,6.6,0.1,11.7-2.4,15.4c-2.5,3.7-6.2,5.8-11,6.5
		c-4.7,0.6-8.8-0.5-12.2-3.3c-3.4-2.8-5.6-7.6-6.4-14.3l-18.2-136.2c-1-7.5,0.3-12.8,3.8-16c3.6-3.1,8.7-5.2,15.3-6l10.8-1.5
		c6.5-0.9,11.3-0.9,14.4-0.1s5.6,2.6,7.4,5.5c1.8,2.9,4.1,7.6,6.8,14.3l37.6,90.9l12.4-97.6c0.9-7.1,1.8-12.3,2.8-15.6
		s2.9-5.6,5.7-7.2c2.8-1.6,7.4-2.8,13.9-3.7l10.8-1.5c6.7-0.9,12.1-0.3,16.4,1.8s6.9,6.9,7.9,14.4l18.2,136.2
		c0.9,6.6,0.1,11.7-2.4,15.4c-2.5,3.7-6.2,5.8-11.1,6.5c-4.6,0.6-8.6-0.5-12.1-3.4c-3.4-2.9-5.6-7.6-6.4-14.2l-15.9-118.8
		L1440,520.5c-0.8,7.4-1.6,12.8-2.3,16.3c-0.7,3.5-2.4,6.8-5.1,9.9c-2.7,3.2-6.7,5.1-12.1,5.8c-4.1,0.5-7.6,0.1-10.7-1.3
		c-3.1-1.4-5.6-3.3-7.5-5.9c-1.9-2.5-3.6-5.4-4.9-8.6C1396.1,533.6,1394.7,530.3,1393.2,526.8L1393.2,526.8z"/>
	<path class="st1" d="M1593.6,500l-42.3-106l15.9,118.8c0.9,6.6,0.1,11.7-2.4,15.4c-2.5,3.7-6.2,5.8-11,6.5
		c-4.7,0.6-8.8-0.5-12.2-3.3c-3.4-2.8-5.6-7.6-6.4-14.3l-18.2-136.2c-1-7.5,0.3-12.8,3.8-16c3.6-3.1,8.7-5.2,15.3-6.1l10.8-1.5
		c6.5-0.9,11.3-0.9,14.4-0.1c3.1,0.8,5.6,2.6,7.4,5.5c1.8,2.9,4.1,7.6,6.8,14.3l37.6,90.9l12.4-97.6c0.9-7.1,1.8-12.3,2.8-15.6
		s2.9-5.6,5.7-7.2c2.8-1.6,7.4-2.8,13.9-3.7l10.8-1.5c6.7-0.9,12.1-0.3,16.4,1.8c4.3,2.1,6.9,6.9,7.9,14.4l18.2,136.2
		c0.9,6.6,0.1,11.7-2.4,15.4c-2.5,3.7-6.2,5.8-11.1,6.5c-4.6,0.6-8.6-0.5-12.1-3.4c-3.4-2.9-5.6-7.6-6.4-14.2l-15.9-118.8
		l-12.9,113.4c-0.8,7.4-1.6,12.8-2.3,16.3c-0.7,3.5-2.4,6.8-5.1,9.9c-2.7,3.2-6.7,5.1-12.1,5.8c-4.1,0.5-7.6,0.1-10.7-1.3
		s-5.6-3.3-7.5-5.9c-1.9-2.5-3.6-5.4-4.9-8.6C1596.4,506.8,1595,503.4,1593.6,500L1593.6,500z"/>
	<path class="st1" d="M1791.5,321.7c17.8-2.4,33.7-0.8,47.4,4.7s24.8,14.5,33.2,27s13.8,27.7,16.2,45.7c1.8,13.3,1.6,25.6-0.5,37
		c-2.1,11.4-6.3,21.5-12.4,30.5s-14.2,16.2-24.1,21.9c-9.9,5.6-21.7,9.4-35.2,11.2c-13.5,1.8-25.8,1.2-37-1.7s-20.9-7.9-29.1-14.8
		c-8.2-7-14.8-15.7-20-26.4s-8.6-22.4-10.3-35.3c-1.8-13.2-1.5-25.6,0.8-37.2c2.3-11.5,6.6-21.7,12.7-30.4
		c6.2-8.7,14.1-15.8,23.9-21.3S1778.4,323.5,1791.5,321.7L1791.5,321.7z M1853,403.6c-1.7-12.6-5.2-23.2-10.5-32
		c-5.3-8.7-12.1-14.9-20.2-18.6c-8.2-3.7-17.2-4.9-27-3.6c-7,0.9-13.2,3.1-18.8,6.5s-10.1,7.9-13.7,13.5c-3.6,5.6-6.1,12.4-7.5,20.5
		c-1.4,8.1-1.5,17-0.2,26.7c1.3,9.8,3.7,18.5,7.2,26c3.5,7.6,7.9,13.7,13.1,18.3c5.2,4.6,10.9,7.8,17.1,9.6
		c6.2,1.8,12.8,2.2,19.7,1.3c8.9-1.2,16.8-4.5,23.7-10c6.9-5.5,11.9-13.1,15.1-23C1854.1,429,1854.8,417.2,1853,403.6L1853,403.6z"
		/>
</g>
<g>
	<path class="st0" d="M296.4,864.2l15.2-87.1l9.7-1.3l39.2,79.8l-10.4,1.4l-11.4-24.2l-28.8,3.9l-4.1,26.3L296.4,864.2L296.4,864.2z
		 M311.4,827.3l23.3-3.1L324.5,802c-3.2-6.8-5.5-12.4-7.2-16.7c-0.2,5.5-0.7,11-1.6,16.5L311.4,827.3L311.4,827.3z"/>
	<path class="st0" d="M412.3,815.3l-1.3-9.9l29-3.9l4.2,31.1c-3.9,4.9-8,8.8-12.5,11.6c-4.5,2.8-9.2,4.6-14.2,5.2
		c-6.7,0.9-12.9,0-18.6-2.6s-10.5-7-14.4-13c-3.9-6-6.5-13.5-7.7-22.5c-1.2-9.1-0.8-17.3,1.4-24.5s5.5-12.7,10.1-16.6
		s10.2-6.3,17-7.2c5-0.7,9.5-0.3,13.5,1c4,1.4,7.5,3.6,10.4,6.7s5.3,7.5,7.4,13.3l-7.8,3.8c-1.7-4.6-3.6-7.9-5.6-10
		s-4.4-3.7-7.4-4.6s-6.1-1.2-9.5-0.8c-5,0.7-9.1,2.5-12.4,5.3c-3.3,2.9-5.6,7-7.1,12.4s-1.8,11.8-0.8,19.1
		c1.5,11.2,5,19.2,10.4,24.2c5.4,4.9,11.9,6.9,19.4,5.9c3.6-0.5,7.1-1.8,10.6-4c3.5-2.2,6.2-4.6,8.1-7.3l-2.1-15.6L412.3,815.3
		L412.3,815.3z"/>
	<path class="st0" d="M475.7,840.2l-11.2-83.5l49.5-6.6l1.3,9.9l-40.5,5.4l3.4,25.5l37.9-5.1l1.3,9.9l-37.9,5.1l3.8,28.4l42.1-5.6
		l1.3,9.9L475.7,840.2L475.7,840.2z"/>
	<path class="st0" d="M555.8,829.5l-11.2-83.5l9.3-1.2l44.8,60.9l-8.8-65.7l8.7-1.2l11.2,83.5l-9.3,1.2l-44.8-60.9l8.8,65.7
		L555.8,829.5L555.8,829.5z"/>
	<path class="st0" d="M686.5,782.2l9.5,1.6c-0.8,9.7-3.3,17.1-7.8,22.4c-4.4,5.3-10.2,8.4-17.5,9.4c-6.3,0.8-12,0-16.9-2.5
		c-4.9-2.5-9.3-7-13-13.4c-3.8-6.5-6.3-14.3-7.5-23.7c-1.2-9.2-0.8-17.2,1.2-23.9s5.3-12.1,9.7-16c4.5-3.9,9.7-6.3,15.8-7.1
		c6.6-0.9,12.6,0.4,17.9,3.9c5.3,3.5,9.4,9.1,12.4,16.8l-8.5,3.8c-4.6-11.2-11.5-16.2-20.7-14.9c-4.6,0.6-8.4,2.3-11.4,5.1
		c-3,2.8-5.2,6.8-6.6,12c-1.3,5.2-1.5,11.6-0.5,19.2c1.5,11.5,4.7,19.8,9.5,24.9c4.8,5.2,10.5,7.3,17.2,6.4c4.9-0.7,9-3,12.1-7
		C684.6,795.1,686.3,789.5,686.5,782.2L686.5,782.2z"/>
	<path class="st0" d="M727.8,806.5l-11.2-83.5l49.5-6.6l1.3,9.9l-40.5,5.4l3.4,25.5l37.9-5.1l1.3,9.9l-37.9,5.1l3.8,28.4l42.1-5.6
		l1.3,9.9L727.8,806.5L727.8,806.5z"/>
	<path class="st0" d="M853.1,789.7l-11.2-83.5l9.1-1.2l11.2,83.5L853.1,789.7z"/>
	<path class="st0" d="M894.4,784.1l-11.2-83.5l13.6-1.8l24.2,57l4.9,11.9c0.4-3.2,1-7.8,1.9-13.9l8.7-60.3l12.2-1.6l11.2,83.5
		l-8.7,1.2l-9.3-69.9l-10.6,72.5l-8.1,1.1l-29.4-68.4l9.5,71.1L894.4,784.1L894.4,784.1z"/>
	<path class="st0" d="M990.8,771.2l-11.2-83.5l13.6-1.8l24.2,57l4.9,11.9c0.4-3.2,1-7.8,1.9-13.9l8.7-60.3l12.2-1.6l11.2,83.5
		l-8.7,1.2l-9.3-69.9l-10.6,72.5l-8.1,1.1L990.1,699l9.5,71.1L990.8,771.2L990.8,771.2z"/>
	<path class="st0" d="M1079.5,717.9c-1.9-14.2-0.2-25.6,5-34.1c5.2-8.5,12.5-13.4,21.9-14.6c6-0.8,11.8,0.2,17.2,2.9
		c5.4,2.8,10,7.2,13.8,13.3c3.8,6.1,6.3,13.7,7.5,22.7c1.7,12.4,0.2,22.8-4.4,31.4c-5,9.4-12.6,14.8-22.6,16.1
		c-10.1,1.3-18.8-2-26.2-10C1085.1,738.5,1081,729.2,1079.5,717.9L1079.5,717.9z M1088.9,716.8c1.4,10.3,4.7,18,10,23.1
		c5.3,5.1,11.2,7.2,17.7,6.3c6.7-0.9,11.8-4.5,15.6-10.8c3.7-6.3,4.9-15.1,3.4-26.2c-1-7.2-3-13.5-6.1-18.8
		c-2.4-4.1-5.5-7.2-9.5-9.3c-3.9-2.1-8-2.9-12.3-2.3c-6.8,0.9-12.1,4.5-15.8,10.8S1087.3,704.9,1088.9,716.8L1088.9,716.8z"/>
	<path class="st0" d="M1178.4,746.1l-11.2-83.5l25.7-3.5c5.2-0.7,9.4-0.4,12.7,0.8s6.1,3.4,8.5,6.5c2.4,3.2,3.9,6.8,4.4,10.9
		c0.5,3.8,0.1,7.4-1.1,10.7s-3.3,6.1-6.1,8.3c4.2,0.9,7.6,3,10.4,6.1c2.8,3.2,4.5,7.3,5.2,12.4c0.7,5.1,0.2,9.6-1.3,13.7
		c-1.6,4.1-3.9,7.2-7.2,9.4c-3.2,2.2-7.9,3.7-13.9,4.5L1178.4,746.1L1178.4,746.1z M1180.9,696.5l14.8-2c3.9-0.5,6.6-1.2,8.2-1.9
		c2.2-1.1,3.9-2.7,4.9-4.8s1.3-4.7,0.9-7.9c-0.4-3-1.3-5.4-2.8-7.3s-3.2-3-5.2-3.5c-2-0.5-5.5-0.4-10.5,0.2l-13.8,1.8L1180.9,696.5
		L1180.9,696.5z M1186.1,735l17.1-2.3c3.8-0.5,6.5-1.2,8.2-2.1c2.5-1.3,4.2-3.2,5.2-5.7c1.1-2.4,1.3-5.4,0.9-8.8
		c-0.4-3.2-1.4-5.7-3-7.7c-1.6-2-3.5-3.4-5.9-4.1s-5.8-0.8-10.5-0.1l-15.9,2.1L1186.1,735L1186.1,735z"/>
	<path class="st0" d="M1260.9,735.1l-11.2-83.5l9.1-1.2l11.2,83.5L1260.9,735.1z"/>
	<path class="st0" d="M1302,729.6l-11.2-83.5l9.1-1.2l9.9,73.7l33.7-4.5l1.3,9.9L1302,729.6L1302,729.6z"/>
	<path class="st0" d="M1374.2,719.9l-11.2-83.5l9.1-1.2l11.2,83.5L1374.2,719.9z"/>
	<path class="st0" d="M1415.9,714.3l-11.2-83.5l49.5-6.6l1.3,9.9l-40.5,5.4l3.4,25.5l37.9-5.1l1.3,9.9l-37.9,5.1l3.8,28.4l42.1-5.6
		l1.3,9.9L1415.9,714.3L1415.9,714.3z"/>
	<path class="st0" d="M1573.3,692.3l-17.5-82.4l48.9-10.4l2.1,9.7l-39.9,8.5l5.4,25.2l37.4-7.9l2.1,9.7l-37.4,7.9l6,28.1l41.5-8.8
		l2.1,9.7L1573.3,692.3L1573.3,692.3z"/>
	<path class="st0" d="M1496.2,703.6L1485,620l30.4-4.1c6.3-0.8,11.1-0.7,14.4,0.5c3.2,1.2,6.1,3.4,8.5,6.8c2.4,3.4,3.9,7.4,4.6,12.2
		c0.8,6.3-0.1,11.6-2.9,16s-7.2,7.5-13.3,9.4c2.8,1.2,4.9,2.5,6.4,3.9c3.1,2.8,6,6.1,8.6,9.7l15,21.1l-11.4,1.5l-11.5-16.2
		c-4.4-6.3-7.7-10.5-9.8-12.7s-4.1-3.5-5.9-4.1c-1.8-0.6-4.2-0.7-7.2-0.3l-10.5,1.4l5,37.1L1496.2,703.6L1496.2,703.6z M1499,655.7
		l19.5-2.6c4.2-0.6,7.4-1.5,9.5-2.8s3.6-3.2,4.6-5.5s1.3-5,0.9-8c-0.6-4.2-2.2-7.4-5-9.5c-2.8-2.1-6.6-2.8-11.5-2.1l-21.7,2.9
		L1499,655.7L1499,655.7z"/>
	<line class="st2" x1="1404.7" y1="598.4" x2="1421" y2="617.9"/>
</g>
</svg>
