<?xml version="1.0" encoding="UTF-8"?>
<svg id="Calque_1" data-name="Calque 1" xmlns="http://www.w3.org/2000/svg" viewBox="0 0 1889.91 864.21">
  <defs>
    <style>
      .cls-1 {
        stroke-width: 0px;
      }

      .cls-2 {
        stroke: #fff;
        stroke-miterlimit: 10;
        stroke-width: .75px;
      }
    </style>
  </defs>
  <g>
    <path class="cls-1" d="m704.5,149.8c51.89-46.92,104.12-93.46,155.38-141.05,11.04-10.25,18.94-11.41,32-3.94,164.9,94.31,329.7,188.83,495.64,281.27,28.88,16.09,22.49,40.45,28.5,63.22-9.36,2.52-13.22-4.29-18.46-7.28-167.57-95.61-335.09-191.3-502.35-287.44-11.68-6.71-18.44-4.14-27.48,4.22-65.81,60.86-132.07,121.24-198.29,181.65-5,4.56-9.46,12.46-17.74,9.02-7.41-3.09-4.83-11.5-5.66-17.52-3.31-24.12-6.27-48.3-8.51-72.54-.84-9.16-3.41-11.65-13.11-10.83-37,3.14-37.33,2.71-33.59,39.75,3.58,35.45,7.32,70.91,12.13,106.21,1.51,11.07-2.16,17.41-9.96,24.33-24.88,22.05-49.07,44.88-73.52,67.41-6.07,5.32-12.15,10.63-18.22,15.95-27.06,24.38-54.33,48.52-81.04,73.27-7.45,6.9-9.65-.23-10.48-3.76-3.03-12.94,2.35-26.74-4.12-39.72-1.84-3.68,4.19-4.9,6.63-7.14,42.38-38.88,84.1-78.54,127.68-116.03,18.41-15.84,17.59-33.8,15.03-53.76-3.28-25.6-5.83-51.33-10.36-76.71-3-16.79-1.27-33.82-4.66-50.39-1.47-7.19-.1-11.9,7.52-12.87,39.97-5.07,79.95-10,119.96-14.72,1.88-.22,4.05,1.95,6.09,3,.24,4.92-.57,10.03,2.61,14.42.55,5.87,1.1,11.75,1.65,17.62,1.03,10.69,2.06,21.38,3.49,36.19,9.52-8.93,16.38-15.38,23.25-21.82h-.01Z"/>
    <path class="cls-1" d="m981.19,276.28c7.78,17.29-4.26,19.62-19.35,19.78-12.82.14-28.03,9.15-37.61,1.2-8.66-7.18-3.15-23.71-6.41-35.5-4.71-17.03-.47-23.21,18.19-25.23,41.24-4.46,41.1-5.72,45.19,39.75h-.01Z"/>
    <path class="cls-1" d="m995.3,370.05c-12.34,20.73-33.43,10.72-48.99,15.45-18.12,5.51-16.01-9.06-15.77-18.55.34-13.54-10.86-30.6-2.05-38.9,10.83-10.2,31.03-10.16,45.67-7.61,29.06,5.07,7.41,33.57,21.14,49.61h0Z"/>
    <path class="cls-1" d="m873.33,244.82c16.44-7.39,20.82,3.09,20.65,18.9-.14,12.99,9.27,28.1,1.89,37.97-7.54,10.08-24.69,2.88-36.98,6.78-16.55,5.25-24.25-.39-23.87-17.71.08-3.5-1.14-7.01-1.54-10.54-2.35-20.61,7.17-32.02,28.56-34.23,2.95-.31,5.9-.61,11.29-1.16h0Z"/>
    <path class="cls-1" d="m857.49,395.78c-7.3,2.02-10.87-2.26-11.28-11.26-.29-6.49-1.64-12.94-2.4-19.41-2.31-19.53,6.38-30.51,26.07-32.94,20.77-2.57,32.21,6.23,34.3,26.4,2.17,20.93-7.38,32.7-28.67,35.3-5.3.64-10.62,1.13-18.02,1.91h0Z"/>
  </g>
  <g>
    <path class="cls-2" d="m19.27,561.96l45.44-6.08c11.82-1.58,22.11-1.85,30.86-.79s16.97,4.14,24.66,9.25c19.98,12.94,32.07,35.07,36.26,66.38,1.38,10.33,1.75,19.89,1.09,28.66-.66,8.78-2.41,16.84-5.25,24.19s-6.83,14.12-11.98,20.31c-4.07,4.77-8.67,8.77-13.81,12.01s-10.8,5.79-16.96,7.65c-6.17,1.86-13.2,3.32-21.11,4.38l-45.44,6.08c-6.34.85-11.25.53-14.71-.96-3.47-1.49-5.92-3.91-7.37-7.26-1.45-3.35-2.54-7.81-3.28-13.37L.76,586.2c-1.01-7.52-.05-13.18,2.86-17,2.92-3.81,8.13-6.23,15.65-7.23h0Zm17.2,25.79l15.64,116.84,26.42-3.54c5.79-.77,10.31-1.54,13.56-2.29s6.55-1.99,9.9-3.72c3.36-1.72,6.17-3.89,8.45-6.51,10.34-11.43,13.9-29.2,10.67-53.31-2.27-16.99-6.54-29.37-12.8-37.13-6.26-7.77-13.3-12.3-21.13-13.61-7.82-1.3-17.06-1.24-27.71.18l-23.01,3.08h.01Z"/>
    <path class="cls-2" d="m251.03,527.94c17.85-2.39,33.66-.82,47.43,4.71s24.84,14.53,33.2,26.99c8.36,12.47,13.75,27.7,16.16,45.71,1.78,13.31,1.6,25.65-.54,37.01s-6.28,21.52-12.42,30.47c-6.13,8.95-14.16,16.24-24.09,21.87-9.92,5.63-21.66,9.35-35.2,11.17-13.47,1.8-25.81,1.25-37.04-1.67-11.23-2.92-20.93-7.85-29.12-14.81-8.18-6.95-14.84-15.74-19.97-26.37s-8.56-22.4-10.29-35.32c-1.77-13.23-1.5-25.62.82-37.16,2.32-11.55,6.56-21.68,12.72-30.39,6.16-8.72,14.14-15.82,23.92-21.31s21.25-9.12,34.4-10.88l.02-.02Zm61.41,81.9c-1.69-12.6-5.19-23.25-10.49-31.95-5.31-8.69-12.06-14.9-20.24-18.62-8.19-3.72-17.18-4.93-26.96-3.62-6.97.93-13.23,3.1-18.79,6.52-5.56,3.41-10.14,7.91-13.73,13.49-3.6,5.58-6.1,12.43-7.53,20.55-1.42,8.12-1.48,17.03-.18,26.74,1.31,9.79,3.73,18.47,7.25,26.04,3.53,7.58,7.89,13.67,13.09,18.27,5.2,4.6,10.88,7.8,17.06,9.61,6.18,1.8,12.75,2.24,19.72,1.3,8.92-1.19,16.83-4.52,23.7-9.99,6.88-5.46,11.9-13.15,15.08-23.05,3.17-9.91,3.85-21.67,2.03-35.29h-.01Z"/>
    <path class="cls-2" d="m379.91,616.47l-11.08-82.79c-.94-7.04-.07-12.54,2.63-16.49s6.63-6.27,11.8-6.96c5.4-.72,9.92.46,13.57,3.56,3.64,3.1,5.94,8.17,6.88,15.22l11.34,84.67c1.29,9.63,3.44,17.53,6.46,23.7s7.5,10.67,13.46,13.5,13.87,3.58,23.73,2.26c13.62-1.82,22.76-6.73,27.43-14.73,4.67-8,6.01-19.35,4.04-34.07l-11.43-85.37c-.95-7.12-.1-12.63,2.57-16.54,2.66-3.9,6.62-6.21,11.87-6.91,5.24-.7,9.72.47,13.44,3.52s6.05,8.14,7,15.26l11.08,82.79c1.8,13.46,2,24.88.58,34.23s-5.31,17.92-11.68,25.71c-5.49,6.63-12.2,11.84-20.14,15.6-7.94,3.77-17.47,6.4-28.59,7.89-13.23,1.77-24.81,1.87-34.74.29s-18.31-4.96-25.14-10.14-12.28-12.26-16.35-21.24-6.98-19.97-8.72-32.96h-.01Z"/>
    <path class="cls-2" d="m695.81,594.02c1.39,10.41-.04,20.13-4.29,29.14s-11.23,16.56-20.93,22.64-21.64,10.07-35.81,11.97c-16.99,2.27-31.43.94-43.33-4-8.45-3.57-15.63-8.88-21.56-15.94-5.92-7.05-9.38-14.22-10.35-21.51-.57-4.23.42-8.04,2.95-11.45,2.53-3.41,6.07-5.41,10.61-6.02,3.68-.49,6.95.26,9.81,2.27s5.5,5.2,7.92,9.58c2.93,5.18,5.91,9.45,8.94,12.79,3.04,3.34,7.02,5.89,11.96,7.66,4.94,1.77,11.16,2.15,18.68,1.14,10.33-1.38,18.41-4.91,24.22-10.6,5.81-5.68,8.24-12.12,7.27-19.32-.77-5.72-3.13-10.12-7.09-13.21-3.96-3.1-8.83-5.21-14.6-6.35-5.77-1.14-13.42-2.15-22.94-3.03-12.76-1.24-23.56-3.24-32.42-6s-16.18-7.16-21.97-13.2c-5.79-6.04-9.35-14.02-10.68-23.97-1.27-9.47.19-18.23,4.37-26.29,4.18-8.05,10.9-14.7,20.15-19.97,9.26-5.26,20.5-8.78,33.73-10.55,10.57-1.42,19.88-1.33,27.95.26,8.06,1.59,14.93,4.22,20.6,7.88s10,7.73,12.99,12.19,4.79,8.96,5.39,13.5c.56,4.15-.41,8.09-2.9,11.81-2.49,3.72-5.93,5.87-10.31,6.46-3.99.53-7.16-.06-9.5-1.78-2.34-1.72-5.03-4.68-8.06-8.9-4-6.08-8.44-10.64-13.31-13.7-4.87-3.05-12.16-3.93-21.87-2.63-9,1.2-16,4.15-20.99,8.84-4.99,4.69-7.11,9.82-6.37,15.38.46,3.44,1.8,6.29,4.01,8.55,2.21,2.25,5.08,4.06,8.61,5.42,3.53,1.36,7.04,2.32,10.55,2.89,3.5.57,9.26,1.31,17.27,2.23,10.01.97,19.13,2.3,27.37,3.99s15.37,4.12,21.42,7.29c6.04,3.17,11.01,7.55,14.91,13.12,3.89,5.58,6.42,12.71,7.59,21.4v.02Z"/>
    <path class="cls-2" d="m826.3,481.28l-78.56,10.52,5.66,42.27,72.33-9.69c5.32-.71,9.45-.05,12.4,1.99,2.94,2.04,4.68,5.01,5.2,8.93s-.34,7.28-2.59,10.09-6.08,4.58-11.48,5.3l-72.33,9.69,6.56,48.97,81.26-10.88c5.48-.73,9.78-.01,12.9,2.16s4.96,5.37,5.53,9.6c.54,4.07-.4,7.57-2.84,10.48-2.44,2.92-6.4,4.74-11.88,5.48l-94.76,12.69c-7.59,1.02-13.28.07-17.06-2.86-3.78-2.92-6.17-8.14-7.18-15.65l-17.33-129.41c-.67-5.01-.47-9.2.59-12.57s3.08-5.99,6.06-7.86,6.93-3.14,11.86-3.8l92.06-12.33c5.56-.74,9.85-.07,12.88,2.04,3.03,2.1,4.81,5.15,5.35,9.14.55,4.07-.37,7.52-2.74,10.35-2.37,2.83-6.33,4.62-11.89,5.36h0Z"/>
    <path class="cls-2" d="m906.28,461.72l16.78,125.3,70.69-9.47c5.64-.75,10.15.04,13.53,2.37,3.38,2.34,5.35,5.58,5.9,9.73.57,4.23-.46,7.85-3.08,10.87s-6.79,4.91-12.51,5.68l-84.19,11.27c-7.6,1.02-13.28.07-17.06-2.85-3.78-2.92-6.17-8.14-7.18-15.65l-17.75-132.58c-.94-7.04-.07-12.54,2.63-16.49,2.7-3.95,6.63-6.27,11.8-6.96,5.24-.7,9.72.47,13.44,3.52,3.71,3.05,6.05,8.13,7,15.26h0Z"/>
    <path class="cls-2" d="m1051.53,442.27l16.78,125.3,70.69-9.47c5.64-.75,10.15.04,13.53,2.37,3.38,2.34,5.35,5.58,5.9,9.73.56,4.23-.46,7.85-3.09,10.87-2.62,3.02-6.79,4.91-12.51,5.68l-84.19,11.28c-7.59,1.02-13.28.07-17.06-2.86-3.78-2.92-6.17-8.14-7.18-15.65l-17.75-132.58c-.94-7.04-.07-12.54,2.63-16.49,2.7-3.95,6.63-6.27,11.8-6.96,5.25-.7,9.73.47,13.44,3.52s6.05,8.13,7,15.26h.01Z"/>
    <path class="cls-2" d="m1216.68,527.62l-37.11,4.97c-5.64.75-10.1.02-13.39-2.21-3.29-2.23-5.21-5.42-5.76-9.57-.57-4.23.4-7.84,2.91-10.85,2.51-3,6.66-4.9,12.45-5.67l37.11-4.97c5.79-.77,10.29-.04,13.5,2.2,3.21,2.24,5.1,5.48,5.66,9.7.56,4.15-.4,7.72-2.87,10.73-2.47,3-6.64,4.89-12.51,5.68h.01Z"/>
    <path class="cls-2" d="m1262.27,552.11l-18.16-135.63c-.94-7.04-.05-12.54,2.69-16.5,2.74-3.95,6.65-6.27,11.74-6.95,5.24-.7,9.72.47,13.44,3.52,3.71,3.05,6.05,8.14,7,15.26l18.16,135.63c.95,7.13.04,12.67-2.73,16.62-2.78,3.96-6.79,6.29-12.03,6.99-5.01.67-9.38-.56-13.11-3.68-3.72-3.12-6.06-8.21-7-15.26h0Z"/>
    <path class="cls-2" d="m1393.24,526.81l-42.28-105.98,15.91,118.84c.88,6.58.07,11.7-2.42,15.39-2.5,3.68-6.17,5.84-11.02,6.5-4.7.63-8.75-.48-12.16-3.33-3.41-2.85-5.56-7.6-6.45-14.26l-18.24-136.21c-1.01-7.52.27-12.84,3.84-15.99,3.56-3.15,8.67-5.16,15.33-6.05l10.8-1.45c6.5-.87,11.29-.92,14.39-.14s5.55,2.6,7.37,5.47c1.82,2.86,4.09,7.62,6.81,14.27l37.64,90.94,12.39-97.64c.88-7.13,1.82-12.32,2.82-15.56s2.89-5.65,5.67-7.21c2.78-1.57,7.41-2.79,13.91-3.66l10.81-1.45c6.65-.89,12.11-.29,16.38,1.81s6.9,6.91,7.91,14.42l18.24,136.21c.88,6.58.07,11.7-2.42,15.39-2.5,3.68-6.21,5.85-11.14,6.51-4.62.62-8.63-.52-12.05-3.41-3.42-2.89-5.56-7.62-6.44-14.2l-15.91-118.84-12.91,113.37c-.85,7.37-1.62,12.79-2.3,16.26-.69,3.48-2.38,6.79-5.06,9.94-2.69,3.15-6.73,5.09-12.13,5.81-4.07.54-7.63.13-10.69-1.26-3.05-1.38-5.55-3.34-7.48-5.87-1.93-2.53-3.57-5.4-4.92-8.61-1.35-3.21-2.73-6.55-4.15-10.02h-.05Z"/>
    <path class="cls-2" d="m1593.57,499.98l-42.28-105.98,15.91,118.83c.88,6.58.07,11.71-2.42,15.39-2.5,3.68-6.17,5.84-11.02,6.49-4.7.63-8.75-.48-12.16-3.33-3.41-2.85-5.56-7.6-6.45-14.26l-18.24-136.21c-1.01-7.51.27-12.84,3.84-15.99,3.56-3.15,8.67-5.16,15.33-6.06l10.8-1.45c6.5-.87,11.29-.92,14.39-.13,3.09.78,5.55,2.6,7.37,5.47,1.82,2.86,4.09,7.62,6.81,14.27l37.64,90.94,12.38-97.64c.88-7.13,1.82-12.32,2.82-15.56s2.89-5.64,5.67-7.21c2.78-1.57,7.41-2.79,13.91-3.66l10.8-1.45c6.65-.89,12.11-.29,16.38,1.81,4.26,2.1,6.9,6.91,7.91,14.42l18.24,136.21c.88,6.58.07,11.7-2.42,15.39-2.5,3.68-6.21,5.85-11.14,6.51-4.62.62-8.63-.52-12.05-3.41-3.42-2.89-5.56-7.62-6.44-14.2l-15.91-118.83-12.91,113.37c-.85,7.37-1.62,12.79-2.3,16.26-.69,3.48-2.38,6.79-5.06,9.94-2.69,3.15-6.73,5.08-12.13,5.81-4.07.54-7.63.13-10.69-1.26s-5.55-3.34-7.48-5.87c-1.93-2.53-3.57-5.4-4.92-8.6-1.35-3.21-2.73-6.55-4.15-10.02h-.03Z"/>
    <path class="cls-2" d="m1791.54,321.67c17.85-2.39,33.66-.82,47.43,4.71s24.84,14.52,33.2,26.99,13.75,27.7,16.16,45.71c1.78,13.31,1.6,25.65-.54,37.01-2.14,11.36-6.28,21.52-12.42,30.47s-14.16,16.24-24.09,21.87c-9.92,5.63-21.66,9.35-35.2,11.17-13.47,1.8-25.81,1.25-37.04-1.67s-20.93-7.85-29.12-14.81c-8.18-6.95-14.84-15.74-19.97-26.37s-8.56-22.4-10.29-35.32c-1.77-13.23-1.5-25.62.82-37.16,2.32-11.55,6.56-21.68,12.73-30.39,6.16-8.72,14.14-15.82,23.92-21.31s21.25-9.12,34.4-10.88v-.02Zm61.41,81.9c-1.69-12.6-5.19-23.25-10.49-31.95-5.31-8.69-12.06-14.9-20.24-18.62-8.19-3.72-17.18-4.93-26.96-3.62-6.97.93-13.23,3.11-18.79,6.52s-10.14,7.91-13.73,13.49c-3.6,5.58-6.1,12.43-7.53,20.55-1.42,8.12-1.48,17.03-.18,26.74,1.31,9.79,3.73,18.47,7.25,26.04,3.53,7.58,7.89,13.67,13.09,18.27,5.2,4.6,10.88,7.8,17.06,9.61,6.18,1.8,12.75,2.24,19.72,1.31,8.92-1.2,16.83-4.53,23.7-9.99,6.88-5.46,11.9-13.15,15.08-23.05,3.17-9.91,3.85-21.67,2.03-35.29h0Z"/>
  </g>
  <g>
    <path class="cls-1" d="m296.37,864.21l15.24-87.08,9.69-1.3,39.24,79.78-10.37,1.39-11.35-24.24-28.82,3.86-4.06,26.3-9.56,1.28h0Zm15.06-36.94l23.34-3.12-10.22-22.18c-3.16-6.81-5.54-12.37-7.16-16.68-.17,5.48-.71,10.96-1.62,16.46l-4.34,25.52h0Z"/>
    <path class="cls-1" d="m412.27,815.34l-1.32-9.86,29-3.94,4.16,31.06c-3.86,4.93-8.03,8.8-12.48,11.62-4.46,2.82-9.19,4.57-14.21,5.24-6.69.89-12.88.02-18.57-2.62s-10.5-6.97-14.41-12.99c-3.92-6.02-6.48-13.53-7.69-22.54-1.22-9.12-.75-17.27,1.42-24.45s5.53-12.71,10.08-16.59,10.22-6.27,17.02-7.19c5.02-.67,9.53-.33,13.54,1.03,4.01,1.36,7.46,3.58,10.35,6.68s5.34,7.54,7.36,13.34l-7.78,3.83c-1.73-4.56-3.59-7.9-5.58-10.01s-4.43-3.65-7.35-4.61-6.08-1.21-9.5-.76c-4.98.67-9.1,2.45-12.36,5.34-3.27,2.9-5.65,7.04-7.15,12.43s-1.76,11.75-.78,19.09c1.5,11.18,4.95,19.24,10.37,24.18,5.42,4.94,11.87,6.92,19.35,5.91,3.57-.48,7.11-1.82,10.63-4.03,3.51-2.21,6.21-4.64,8.1-7.29l-2.08-15.56-20.12,2.69h0Z"/>
    <path class="cls-1" d="m475.74,840.19l-11.19-83.54,49.52-6.63,1.32,9.86-40.46,5.42,3.42,25.53,37.89-5.07,1.32,9.86-37.9,5.07,3.81,28.44,42.06-5.63,1.32,9.86-51.12,6.85v-.02Z"/>
    <path class="cls-1" d="m555.8,829.47l-11.19-83.54,9.29-1.24,44.81,60.9-8.8-65.72,8.66-1.16,11.19,83.54-9.29,1.24-44.76-60.92,8.8,65.73-8.72,1.17h.01Z"/>
    <path class="cls-1" d="m686.53,782.15l9.49,1.57c-.76,9.66-3.34,17.12-7.76,22.42-4.42,5.29-10.23,8.42-17.45,9.38-6.34.85-11.98.03-16.89-2.47-4.92-2.49-9.27-6.97-13.05-13.43-3.78-6.46-6.3-14.34-7.55-23.66-1.23-9.2-.84-17.18,1.18-23.93s5.26-12.08,9.73-15.99c4.47-3.9,9.73-6.26,15.77-7.07,6.62-.89,12.58.41,17.88,3.89,5.3,3.48,9.44,9.07,12.41,16.77l-8.55,3.75c-4.59-11.18-11.48-16.16-20.65-14.93-4.57.61-8.37,2.31-11.4,5.1-3.04,2.79-5.22,6.78-6.56,11.99-1.34,5.21-1.5,11.6-.48,19.17,1.53,11.45,4.69,19.76,9.49,24.94,4.79,5.18,10.53,7.33,17.22,6.43,4.94-.66,8.97-2.99,12.09-6.98,3.12-4,4.81-9.64,5.07-16.95h.01Z"/>
    <path class="cls-1" d="m727.77,806.45l-11.19-83.54,49.52-6.63,1.32,9.86-40.46,5.42,3.42,25.53,37.89-5.07,1.32,9.86-37.9,5.07,3.81,28.44,42.06-5.63,1.32,9.86-51.12,6.84h.01Z"/>
    <path class="cls-1" d="m853.12,789.66l-11.19-83.54,9.06-1.21,11.19,83.54-9.06,1.21Z"/>
    <path class="cls-1" d="m894.43,784.13l-11.18-83.54,13.62-1.83,24.18,56.98,4.91,11.93c.39-3.18,1.01-7.81,1.86-13.88l8.65-60.33,12.2-1.63,11.19,83.54-8.72,1.17-9.35-69.87-10.62,72.54-8.14,1.09-29.38-68.41,9.52,71.07-8.72,1.17h-.02Z"/>
    <path class="cls-1" d="m990.84,771.22l-11.19-83.54,13.63-1.82,24.18,56.98,4.91,11.93c.39-3.18,1.01-7.81,1.86-13.88l8.65-60.33,12.2-1.63,11.19,83.54-8.72,1.17-9.35-69.87-10.62,72.54-8.14,1.09-29.38-68.41,9.52,71.07-8.72,1.17h-.02Z"/>
    <path class="cls-1" d="m1079.53,717.93c-1.91-14.24-.24-25.62,5.01-34.11,5.24-8.5,12.54-13.37,21.88-14.62,6.04-.81,11.78.16,17.21,2.92,5.43,2.75,10.04,7.19,13.82,13.32,3.78,6.13,6.27,13.69,7.48,22.7,1.66,12.39.2,22.85-4.38,31.39-5.04,9.42-12.58,14.79-22.61,16.14-10.11,1.35-18.82-1.96-26.16-9.95-6.65-7.23-10.73-16.49-12.25-27.77v-.02Zm9.36-1.11c1.38,10.31,4.72,18,10.02,23.07,5.3,5.08,11.2,7.18,17.7,6.31,6.65-.89,11.84-4.51,15.57-10.85,3.73-6.35,4.86-15.09,3.36-26.23-.96-7.19-2.98-13.46-6.06-18.81-2.37-4.09-5.52-7.21-9.46-9.33-3.94-2.13-8.04-2.9-12.29-2.33-6.84.92-12.09,4.52-15.75,10.82s-4.69,15.41-3.1,27.35h.01Z"/>
    <path class="cls-1" d="m1178.37,746.11l-11.19-83.54,25.73-3.45c5.21-.7,9.44-.44,12.7.76s6.09,3.39,8.48,6.54c2.4,3.16,3.88,6.81,4.43,10.94.51,3.84.14,7.4-1.12,10.7s-3.29,6.08-6.08,8.35c4.17.91,7.63,2.95,10.38,6.13,2.75,3.17,4.47,7.31,5.15,12.4.68,5.06.24,9.63-1.32,13.73-1.56,4.1-3.95,7.24-7.18,9.43-3.23,2.2-7.86,3.7-13.9,4.5l-26.1,3.49.02.02Zm2.57-49.65l14.84-1.99c3.88-.52,6.61-1.15,8.17-1.9,2.25-1.12,3.89-2.7,4.91-4.75s1.32-4.69.89-7.92c-.4-3-1.32-5.42-2.75-7.26s-3.15-3.01-5.18-3.51c-2.02-.5-5.53-.42-10.51.25l-13.76,1.84,3.38,25.25h.01Zm5.17,38.58l17.07-2.29c3.77-.5,6.5-1.22,8.2-2.14,2.46-1.34,4.21-3.22,5.25-5.66,1.05-2.44,1.35-5.37.89-8.79-.42-3.15-1.43-5.73-3.01-7.74-1.59-2.01-3.54-3.38-5.86-4.09s-5.82-.76-10.5-.13l-15.87,2.13,3.85,28.72h-.02Z"/>
    <path class="cls-1" d="m1260.94,735.06l-11.19-83.54,9.06-1.21,11.19,83.54-9.06,1.21Z"/>
    <path class="cls-1" d="m1301.96,729.56l-11.19-83.54,9.06-1.21,9.87,73.69,33.74-4.52,1.32,9.86-42.8,5.73h0Z"/>
    <path class="cls-1" d="m1374.15,719.9l-11.19-83.54,9.06-1.21,11.19,83.54-9.06,1.21Z"/>
    <path class="cls-1" d="m1415.91,714.31l-11.19-83.54,49.52-6.63,1.32,9.86-40.46,5.42,3.42,25.53,37.89-5.07,1.32,9.86-37.89,5.07,3.81,28.44,42.05-5.63,1.32,9.86-51.12,6.85v-.02Z"/>
    <path class="cls-1" d="m1496.2,703.56l-11.19-83.54,30.37-4.07c6.35-.85,11.13-.7,14.36.46,3.23,1.15,6.06,3.41,8.48,6.78,2.42,3.37,3.95,7.44,4.6,12.23.84,6.3-.12,11.63-2.88,15.98s-7.21,7.48-13.33,9.38c2.75,1.19,4.89,2.48,6.43,3.87,3.12,2.83,5.98,6.06,8.55,9.7l15.01,21.14-11.4,1.53-11.46-16.15c-4.45-6.32-7.73-10.54-9.85-12.66s-4.08-3.47-5.87-4.06c-1.8-.59-4.21-.69-7.25-.28l-10.47,1.4,4.97,37.1-9.06,1.21v-.02Zm2.81-47.88l19.49-2.61c4.25-.57,7.42-1.52,9.48-2.83s3.6-3.17,4.59-5.55,1.3-5.03.91-7.95c-.56-4.22-2.24-7.37-5.04-9.45-2.79-2.08-6.62-2.79-11.48-2.14l-21.65,2.9,3.7,27.64h0Z"/>
  </g>
</svg>